<svg width="100" height="78" viewBox="0 0 100 78" fill="none" xmlns="http://www.w3.org/2000/svg">
<style>
  :root { color: #1A1A1A; }
  @media (prefers-color-scheme: dark) {
    :root { color: #FFFFFF; }
  }
</style>
<path d="M56.4498 78H45.1401C42.5325 78 40.6221 75.5451 41.2627 73.0174L54.6667 20.1261C55.6834 16.1143 61.3774 16.0987 62.4161 20.1049L65.3107 31.27C65.4358 31.7524 65.4696 32.2539 65.4105 32.7488L60.4215 74.4749C60.181 76.486 58.4752 78 56.4498 78Z" fill="currentColor"/>
<path d="M14.2053 19.2059L1.19342 73.0606C0.585325 75.5774 2.4923 78 5.08154 78H16.654C18.5906 78 20.249 76.6127 20.5911 74.7067L26.8472 39.8513C26.9479 39.2902 26.9275 38.7142 26.7875 38.1616L21.9707 19.1624C20.945 15.1163 15.1856 15.1487 14.2053 19.2059Z" fill="currentColor"/>
<path d="M80.7709 3.0065C80.3172 1.23724 78.7227 0 76.8962 0H65.155C62.5428 0 60.6316 2.46312 61.2804 4.9935L79.2291 74.9935C79.6828 76.7628 81.2773 78 83.1038 78H94.845C97.4572 78 99.3684 75.5369 98.7196 73.0065L80.7709 3.0065Z" fill="currentColor"/>
<path d="M36.5714 0H25.1925C22.5687 0 20.6554 2.48364 21.3249 5.02061L35.0277 56.947C36.0831 60.9464 41.7727 60.9093 42.7759 56.8966L46.3041 42.7836C46.4334 42.2664 46.458 41.7286 46.3765 41.2017L40.5244 3.38824C40.2226 1.43852 38.5444 0 36.5714 0Z" fill="currentColor"/>
</svg>
